<?xml version="1.0" encoding="UTF-8" standalone="no"?>
<svg
   xmlns:dc="http://purl.org/dc/elements/1.1/"
   xmlns:cc="http://creativecommons.org/ns#"
   xmlns:rdf="http://www.w3.org/1999/02/22-rdf-syntax-ns#"
   xmlns:svg="http://www.w3.org/2000/svg"
   xmlns="http://www.w3.org/2000/svg"
   xmlns:sodipodi="http://sodipodi.sourceforge.net/DTD/sodipodi-0.dtd"
   xmlns:inkscape="http://www.inkscape.org/namespaces/inkscape"
   viewBox="0 0 500 499.99999"
   version="1.1"
   id="svg3763"
   sodipodi:docname="favicon.svg"
   width="500"
   height="500"
   inkscape:version="0.92.3 (2405546, 2018-03-11)">
  <metadata
     id="metadata3769">
    <rdf:RDF>
      <cc:Work
         rdf:about="">
        <dc:format>image/svg+xml</dc:format>
        <dc:type
           rdf:resource="http://purl.org/dc/dcmitype/StillImage" />
        <dc:title />
      </cc:Work>
    </rdf:RDF>
  </metadata>
  <defs
     id="defs3767" />
  <sodipodi:namedview
     pagecolor="#ffffff"
     bordercolor="#666666"
     borderopacity="1"
     objecttolerance="10"
     gridtolerance="10"
     guidetolerance="10"
     inkscape:pageopacity="0"
     inkscape:pageshadow="2"
     inkscape:window-width="1600"
     inkscape:window-height="837"
     id="namedview3765"
     showgrid="false"
     inkscape:zoom="0.9615905"
     inkscape:cx="182.30394"
     inkscape:cy="223.35686"
     inkscape:window-x="0"
     inkscape:window-y="30"
     inkscape:window-maximized="1"
     inkscape:current-layer="layer1" />
  <path
     d="M 358.25661,173.45026 C 467.12999,137.08657 474.5334,1.8661247 368.05542,1.8661247 A 110.1798,110.1798 0 0 0 279.65015,64.57709 L 135.93766,313.24341 a 207.73006,207.73006 0 0 1 -20.6859,30.70245 114.09909,114.09909 0 0 1 26.78281,-160.69705 L 120.25994,156.03068 C 8.3382506,227.45144 41.217951,433.65736 229.13316,433.65736 c 158.08398,0 232.11771,-191.8348 129.12345,-260.2071 z M 226.30233,392.50313 a 153.72903,153.72903 0 0 1 -77.08218,-18.50832 276.97352,276.97352 0 0 0 26.78276,-38.10576 l 89.92946,-155.68869 14.37133,1.5242 c 125.42176,26.34741 75.55779,210.77857 -54.00137,210.77857 z M 283.7874,147.97391 327.33674,73.940185 c 38.97674,-67.2836463 88.84062,-27.653803 62.05767,21.7746 -20.68586,40.283025 -51.38804,52.259125 -105.60701,52.259125 z"
     id="path4817"
     style="fill:#000000;fill-opacity:1;stroke:#ffffff;stroke-width:2.17746544;stroke-miterlimit:4;stroke-dasharray:none;stroke-opacity:1"
     inkscape:connector-curvature="0" />
  <g
     inkscape:groupmode="layer"
     id="layer1"
     inkscape:label="usi">
    <path
       d="m 189.49502,372.73276 h 6.17477 c 23.77946,1.22244 42.43514,7.55306 54.2592,20.60724 11.9992,-13.09784 30.6549,-19.47207 54.56571,-20.60724 h 5.91204 c 53.03297,3.58007 77.20656,41.47646 119.55414,57.58679 a 48.697506,48.549288 0 0 0 20.9767,4.36594 c 10.8606,-1.17883 17.77984,-12.13733 16.37847,-24.36195 -1.48896,-13.09784 -14.36403,-24.49294 -28.72804,-18.20599 a 18.918455,18.860875 0 0 0 -5.12372,3.49274 c -1.09484,1.00418 -2.32103,3.62375 -5.12377,2.66323 -2.62754,-2.18296 0,-5.37009 1.35759,-7.20378 a 26.275632,26.195658 0 0 1 26.58214,-13.09785 c 24.65532,1.74638 46.72685,23.31413 42.96068,55.97139 C 490.83274,482.53623 446.25174,495.63405 393.39392,500 H 376.18338 A 211.43126,210.78774 0 0 1 250.19174,451.97464 214.89088,214.23684 0 0 1 123.63075,500 H 106.72677 C 53.47483,495.32841 8.4559163,482.53623 0.61703093,432.5025 -2.3608851,396.87642 18.92238,379.36897 43.62147,377.57896 a 26.757353,26.675912 0 0 1 26.88874,13.0978 c 1.22619,2.00836 3.50341,5.10818 1.35757,7.50946 -2.67135,0.48022 -3.98513,-1.6154 -5.12375,-2.66324 a 17.517088,17.463773 0 0 0 -12.34954,-5.37011 c -16.904,-0.61123 -26.62599,18.11869 -19.88189,33.22482 a 18.962247,18.904535 0 0 0 14.75814,11.00218 51.19369,51.037876 0 0 0 20.9767,-4.36593 104.40185,104.08408 0 0 0 16.94779,-8.2953 c 32.18764,-18.59892 57.36849,-45.01287 102.29979,-48.98588 z"
       id="path3761"
       inkscape:connector-curvature="0"
       style="fill:#000000;stroke:#ffffff;stroke-width:1.1;stroke-opacity:1;stroke-miterlimit:4;stroke-dasharray:none" />
  </g>
</svg>
